<svg width="81" height="81" viewBox="0 0 81 81" fill="none" xmlns="http://www.w3.org/2000/svg">
<path d="M40.135 17.9404L40.4882 17.5873L40.8417 17.9402L56.1864 33.258L64.6176 24.8293L40.4887 0.707171L16.3822 24.8291L24.8133 33.2578L40.135 17.9404ZM40.842 63.0596L40.4885 63.413L40.135 63.0596L24.8133 47.7422L16.3822 56.1709L40.4885 80.2927L64.5947 56.1709L56.1637 47.7422L40.842 63.0596ZM71.8614 32.0711L63.4084 40.5004L71.8393 48.929L80.2923 40.4996L71.8614 32.0711ZM0.707207 40.5L9.13811 48.9285L17.569 40.5L9.13811 32.0715L0.707207 40.5ZM40.4889 32.0711L32.0576 40.5L40.4889 48.929L48.9415 40.5L40.4889 32.0711Z" stroke="white"/>
</svg>
