<svg width="720" height="396" viewBox="0 0 720 396" fill="none" xmlns="http://www.w3.org/2000/svg">
<path d="M1.26463 175.387C1.26463 164.353 10.21 155.407 21.2446 155.407H93.0713C104.106 155.407 113.051 164.353 113.051 175.387V227.993C113.051 239.027 104.106 247.973 93.0712 247.973H21.2446C10.2099 247.973 1.26463 239.027 1.26463 227.993V175.387Z" stroke="#E871CAFF" stroke-width="0.505821"/>
<path d="M161.104 20.6059C161.104 9.57131 170.049 0.625958 181.084 0.625958H252.911C263.945 0.625958 272.891 9.57129 272.891 20.6059V73.2113C272.891 84.2459 263.945 93.1913 252.911 93.1913H181.084C170.049 93.1913 161.104 84.246 161.104 73.2113V20.6059Z" stroke="#E871CAFF" stroke-width="0.505821"/>
<path d="M383.666 20.6059C383.666 9.57131 392.611 0.625958 403.645 0.625958H475.472C486.507 0.625958 495.452 9.57129 495.452 20.6059V73.2113C495.452 84.2459 486.507 93.1913 475.472 93.1913H403.645C392.611 93.1913 383.666 84.246 383.666 73.2113V20.6059Z" stroke="#E871CAFF" stroke-width="0.505821"/>
<path d="M606.227 20.6059C606.227 9.57131 615.172 0.625958 626.207 0.625958H698.034C709.068 0.625958 718.014 9.57129 718.014 20.6059V73.2113C718.014 84.2459 709.068 93.1913 698.034 93.1913H626.207C615.172 93.1913 606.227 84.246 606.227 73.2113V20.6059Z" stroke="#E871CAFF" stroke-width="0.505821"/>
<path d="M161.104 323.087C161.104 312.053 170.049 303.107 181.084 303.107H252.911C263.945 303.107 272.891 312.053 272.891 323.087V375.693C272.891 386.727 263.945 395.673 252.911 395.673H181.084C170.049 395.673 161.104 386.727 161.104 375.693V323.087Z" stroke="#E871CAFF" stroke-width="0.505821"/>
<path d="M606.227 323.087C606.227 312.053 615.172 303.107 626.207 303.107H698.034C709.068 303.107 718.014 312.053 718.014 323.087V375.693C718.014 386.727 709.068 395.673 698.034 395.673H626.207C615.172 395.673 606.227 386.727 606.227 375.693V323.087Z" stroke="#E871CAFF" stroke-width="0.505821"/>
<path d="M349.27 323.087C349.27 312.053 358.215 303.107 369.249 303.107H506.833C517.868 303.107 526.813 312.053 526.813 323.087V375.693C526.813 386.727 517.868 395.673 506.833 395.673H369.249C358.215 395.673 349.27 386.727 349.27 375.693V323.087Z" stroke="#E871CAFF" stroke-width="0.505821"/>
<path d="M45.7462 174.431V179.318C45.7462 180.805 44.9976 181.655 43.6319 181.655C42.3066 181.655 41.4568 180.916 41.4568 179.267V174.431H40.6273V179.307C40.6273 180.258 40.8903 181.017 41.4063 181.584C41.9222 182.15 42.6607 182.433 43.6015 182.433C45.4731 182.433 46.5758 181.27 46.5758 179.257V174.431H45.7462ZM50.8159 182.433C51.5847 182.433 52.2018 182.221 52.6672 181.786C53.1325 181.351 53.3652 180.825 53.3652 180.218C53.3652 179.722 53.1831 179.277 52.8189 178.883C52.4244 178.448 51.7567 178.114 50.826 177.881C49.6221 177.567 49.1366 177.183 49.1366 176.465C49.1366 176.07 49.2984 175.747 49.6221 175.494C49.9459 175.241 50.3303 175.119 50.7754 175.119C51.6454 175.119 52.2524 175.544 52.5863 176.384L53.2944 175.989C52.9201 174.988 52.0501 174.34 50.7956 174.34C50.1077 174.34 49.521 174.543 49.0354 174.937C48.5498 175.332 48.307 175.848 48.307 176.505C48.307 177.608 49.0556 178.306 50.6742 178.701C51.8882 178.994 52.5154 179.469 52.5154 180.279C52.5154 180.683 52.3536 181.017 52.0197 181.27C51.696 181.523 51.2914 181.655 50.8159 181.655C49.7941 181.655 49.1972 181.108 48.7926 180.127L48.0743 180.501C48.5599 181.786 49.4704 182.433 50.8159 182.433ZM59.9908 174.431H55.0337V182.353H60.0312V181.584H55.8633V178.711H59.6367V177.942H55.8633V175.2H59.9908V174.431ZM64.1998 179.146L66.5367 182.353H67.5484L65.1002 179.004C65.7274 178.923 66.2434 178.69 66.6581 178.296C67.0729 177.901 67.2752 177.385 67.2752 176.738C67.2752 176.08 67.0426 175.524 66.5671 175.089C66.1017 174.654 65.4138 174.431 64.4932 174.431H61.7517V182.353H62.5812V179.146H64.1998ZM62.5812 175.21H64.4426C65.8286 175.21 66.4356 175.878 66.4356 176.768C66.4356 177.213 66.2636 177.598 65.9297 177.911C65.5959 178.225 65.0901 178.387 64.4224 178.387H62.5812V175.21ZM71.1673 182.433C71.9361 182.433 72.5532 182.221 73.0186 181.786C73.484 181.351 73.7166 180.825 73.7166 180.218C73.7166 179.722 73.5345 179.277 73.1703 178.883C72.7758 178.448 72.1081 178.114 71.1774 177.881C69.9736 177.567 69.488 177.183 69.488 176.465C69.488 176.07 69.6498 175.747 69.9736 175.494C70.2973 175.241 70.6817 175.119 71.1268 175.119C71.9968 175.119 72.6038 175.544 72.9377 176.384L73.6458 175.989C73.2715 174.988 72.4015 174.34 71.1471 174.34C70.4591 174.34 69.8724 174.543 69.3868 174.937C68.9012 175.332 68.6584 175.848 68.6584 176.505C68.6584 177.608 69.407 178.306 71.0257 178.701C72.2396 178.994 72.8669 179.469 72.8669 180.279C72.8669 180.683 72.705 181.017 72.3711 181.27C72.0474 181.523 71.6428 181.655 71.1673 181.655C70.1455 181.655 69.5487 181.108 69.144 180.127L68.4257 180.501C68.9113 181.786 69.8218 182.433 71.1673 182.433Z" fill="white"/>
<path d="M205.586 19.6501V24.5364C205.586 26.0235 204.837 26.8733 203.471 26.8733C202.146 26.8733 201.296 26.1348 201.296 24.4858V19.6501H200.467V24.5262C200.467 25.4772 200.73 26.2359 201.246 26.8024C201.762 27.369 202.5 27.6522 203.441 27.6522C205.312 27.6522 206.415 26.4888 206.415 24.4757V19.6501H205.586ZM210.655 27.6522C211.424 27.6522 212.041 27.4398 212.507 27.0048C212.972 26.5698 213.205 26.0437 213.205 25.4367C213.205 24.941 213.022 24.4959 212.658 24.1014C212.264 23.6663 211.596 23.3325 210.665 23.0998C209.461 22.7862 208.976 22.4018 208.976 21.6835C208.976 21.289 209.138 20.9653 209.461 20.7123C209.785 20.4594 210.17 20.338 210.615 20.338C211.485 20.338 212.092 20.7629 212.426 21.6026L213.134 21.2081C212.759 20.2065 211.889 19.5591 210.635 19.5591C209.947 19.5591 209.36 19.7614 208.875 20.1559C208.389 20.5505 208.146 21.0664 208.146 21.724C208.146 22.8267 208.895 23.5247 210.514 23.9193C211.728 24.2126 212.355 24.6881 212.355 25.4974C212.355 25.9021 212.193 26.2359 211.859 26.4888C211.535 26.7417 211.131 26.8733 210.655 26.8733C209.633 26.8733 209.037 26.327 208.632 25.3457L207.914 25.72C208.399 27.0048 209.31 27.6522 210.655 27.6522ZM219.83 19.6501H214.873V27.5713H219.871V26.8024H215.703V23.9294H219.476V23.1605H215.703V20.419H219.83V19.6501ZM224.039 24.3644L226.376 27.5713H227.388L224.94 24.2228C225.567 24.1418 226.083 23.9091 226.497 23.5146C226.912 23.1201 227.115 22.6041 227.115 21.9567C227.115 21.2991 226.882 20.7427 226.406 20.3077C225.941 19.8727 225.253 19.6501 224.333 19.6501H221.591V27.5713H222.421V24.3644H224.039ZM222.421 20.4291H224.282C225.668 20.4291 226.275 21.0968 226.275 21.987C226.275 22.4321 226.103 22.8166 225.769 23.1302C225.435 23.4438 224.929 23.6056 224.262 23.6056H222.421V20.4291ZM231.007 27.6522C231.775 27.6522 232.393 27.4398 232.858 27.0048C233.323 26.5698 233.556 26.0437 233.556 25.4367C233.556 24.941 233.374 24.4959 233.01 24.1014C232.615 23.6663 231.947 23.3325 231.017 23.0998C229.813 22.7862 229.327 22.4018 229.327 21.6835C229.327 21.289 229.489 20.9653 229.813 20.7123C230.137 20.4594 230.521 20.338 230.966 20.338C231.836 20.338 232.443 20.7629 232.777 21.6026L233.485 21.2081C233.111 20.2065 232.241 19.5591 230.986 19.5591C230.298 19.5591 229.712 19.7614 229.226 20.1559C228.741 20.5505 228.498 21.0664 228.498 21.724C228.498 22.8267 229.246 23.5247 230.865 23.9193C232.079 24.2126 232.706 24.6881 232.706 25.4974C232.706 25.9021 232.544 26.2359 232.211 26.4888C231.887 26.7417 231.482 26.8733 231.007 26.8733C229.985 26.8733 229.388 26.327 228.983 25.3457L228.265 25.72C228.751 27.0048 229.661 27.6522 231.007 27.6522Z" fill="white"/>
<path d="M404.675 33.7117C404.675 32.4674 404.28 31.5064 403.481 30.8083C402.682 30.1103 401.589 29.7663 400.203 29.7663H397.775V37.6875H400.173C401.559 37.6875 402.651 37.3233 403.461 36.5949C404.27 35.8665 404.675 34.9055 404.675 33.7117ZM402.995 33.7117C402.995 34.4705 402.742 35.0673 402.236 35.5024C401.731 35.9272 401.063 36.1397 400.223 36.1397H399.414V31.3141H400.244C401.053 31.3141 401.71 31.5266 402.226 31.9515C402.742 32.3663 402.995 32.953 402.995 33.7117ZM406.054 29.7663V37.6875H411.264V36.1599H407.673V34.4502H410.869V32.9125H407.673V31.304H411.244V29.7663H406.054ZM411.993 29.7663L414.856 37.6875H416.748L419.621 29.7663H417.881L415.817 35.7856L413.764 29.7663H411.993ZM420.695 29.7663V37.6875H425.905V36.1599H422.314V34.4502H425.511V32.9125H422.314V31.304H425.885V29.7663H420.695ZM427.403 29.7663V37.6875H432.421V36.1296H429.032V29.7663H427.403ZM432.727 33.732C432.727 34.8751 433.121 35.8362 433.92 36.6253C434.72 37.4144 435.681 37.8089 436.824 37.8089C437.967 37.8089 438.938 37.4144 439.737 36.6152C440.547 35.816 440.951 34.8347 440.951 33.6915C440.951 32.5585 440.557 31.5974 439.758 30.8184C438.969 30.0395 438.007 29.6449 436.864 29.6449C435.721 29.6449 434.75 30.0395 433.941 30.8387C433.131 31.6379 432.727 32.5989 432.727 33.732ZM435.114 31.9616C435.59 31.476 436.166 31.2332 436.844 31.2332C437.522 31.2332 438.099 31.476 438.574 31.9616C439.049 32.4472 439.282 33.0339 439.282 33.7219C439.282 34.4098 439.049 34.9965 438.574 35.4922C438.099 35.9778 437.522 36.2206 436.844 36.2206C436.166 36.2206 435.59 35.9778 435.114 35.4922C434.639 34.9965 434.406 34.4098 434.406 33.7219C434.406 33.0339 434.639 32.4472 435.114 31.9616ZM448.088 32.3056C448.088 31.4962 447.825 30.869 447.288 30.434C446.762 29.9889 446.085 29.7663 445.255 29.7663H442.311V37.6875H443.95V34.8954H445.194C446.064 34.8954 446.762 34.6728 447.288 34.2378C447.825 33.7927 448.088 33.1452 448.088 32.3056ZM446.439 32.346C446.439 33.0339 445.852 33.3678 445.124 33.3678H443.95V31.3141H445.113C445.872 31.3141 446.439 31.6278 446.439 32.346ZM456.427 32.4573H456.438V37.6875H458.056V29.7663H455.881L453.676 35.0775L451.43 29.7663H449.316V37.6875H450.924V32.4978H450.934L453.129 37.6875H454.222L456.427 32.4573ZM459.896 29.7663V37.6875H465.106V36.1599H461.515V34.4502H464.712V32.9125H461.515V31.304H465.086V29.7663H459.896ZM468.223 32.2246L471.865 37.6875H473.534V29.7663H471.916V34.9358L468.476 29.7663H466.604V37.6875H468.223V32.2246ZM477.056 37.6875H478.685V31.3546H481.062V29.7663H474.679V31.3546H477.056V37.6875ZM419.721 47.732C419.721 48.8751 420.115 49.8362 420.914 50.6253C421.713 51.4144 422.675 51.8089 423.818 51.8089C424.961 51.8089 425.932 51.4144 426.731 50.6152C427.541 49.816 427.945 48.8347 427.945 47.6915C427.945 46.5585 427.551 45.5974 426.751 44.8184C425.962 44.0395 425.001 43.6449 423.858 43.6449C422.715 43.6449 421.744 44.0395 420.935 44.8387C420.125 45.6379 419.721 46.5989 419.721 47.732ZM422.108 45.9616C422.584 45.476 423.16 45.2332 423.838 45.2332C424.516 45.2332 425.092 45.476 425.568 45.9616C426.043 46.4472 426.276 47.0339 426.276 47.7219C426.276 48.4098 426.043 48.9965 425.568 49.4922C425.092 49.9778 424.516 50.2206 423.838 50.2206C423.16 50.2206 422.584 49.9778 422.108 49.4922C421.633 48.9965 421.4 48.4098 421.4 47.7219C421.4 47.0339 421.633 46.4472 422.108 45.9616ZM430.944 47.0036V45.3243H434.525V43.7663H429.305V51.6875H430.944V48.5615H434.151V47.0036H430.944ZM439.48 51.6875H441.109V45.3546H443.486V43.7663H437.103V45.3546H439.48V51.6875ZM446.257 48.4806H449.575V51.6875H451.214V43.7663H449.575V46.8923H446.257V43.7663H444.618V51.6875H446.257V48.4806ZM453.055 43.7663V51.6875H458.265V50.1599H454.674V48.4502H457.87V46.9125H454.674V45.304H458.245V43.7663H453.055ZM420.03 60.3056C420.03 59.4962 419.767 58.869 419.231 58.434C418.705 57.9889 418.027 57.7663 417.198 57.7663H414.254V65.6875H415.893V62.8954H417.137C418.007 62.8954 418.705 62.6728 419.231 62.2378C419.767 61.7927 420.03 61.1452 420.03 60.3056ZM418.381 60.346C418.381 61.0339 417.795 61.3678 417.066 61.3678H415.893V59.3141H417.056C417.815 59.3141 418.381 59.6278 418.381 60.346ZM427.348 65.6875L425.558 62.5919C426.64 62.1973 427.187 61.4285 427.187 60.2752C427.187 59.476 426.923 58.8589 426.387 58.4239C425.861 57.9889 425.194 57.7663 424.384 57.7663H421.258V65.6875H422.897V62.8448H423.889L425.527 65.6875H427.348ZM422.897 59.3141H424.253C424.971 59.3141 425.527 59.6075 425.527 60.3056C425.527 60.9935 424.951 61.3273 424.263 61.3273H422.897V59.3141ZM428.123 61.732C428.123 62.8751 428.517 63.8362 429.317 64.6253C430.116 65.4144 431.077 65.8089 432.22 65.8089C433.363 65.8089 434.334 65.4144 435.134 64.6152C435.943 63.816 436.348 62.8347 436.348 61.6915C436.348 60.5585 435.953 59.5974 435.154 58.8184C434.365 58.0395 433.404 57.6449 432.261 57.6449C431.117 57.6449 430.146 58.0395 429.337 58.8387C428.528 59.6379 428.123 60.5989 428.123 61.732ZM430.51 59.9616C430.986 59.476 431.563 59.2332 432.24 59.2332C432.918 59.2332 433.495 59.476 433.97 59.9616C434.446 60.4472 434.678 61.0339 434.678 61.7219C434.678 62.4098 434.446 62.9965 433.97 63.4922C433.495 63.9778 432.918 64.2206 432.24 64.2206C431.563 64.2206 430.986 63.9778 430.51 63.4922C430.035 62.9965 429.802 62.4098 429.802 61.7219C429.802 61.0339 430.035 60.4472 430.51 59.9616ZM440.58 57.7663V63.1584C440.58 63.8362 440.206 64.2206 439.589 64.2206C439.073 64.2206 438.699 63.9171 438.466 63.3203L437.08 64.0891C437.535 65.2221 438.385 65.7887 439.619 65.7887C440.358 65.7887 440.975 65.5661 441.471 65.1311C441.966 64.686 442.219 64.0689 442.219 63.2798V57.7663H440.58ZM444.001 57.7663V65.6875H449.21V64.1599H445.619V62.4502H448.816V60.9125H445.619V59.304H449.19V57.7663H444.001ZM450.095 61.732C450.095 62.8852 450.489 63.8564 451.268 64.6354C452.047 65.4144 453.018 65.7988 454.171 65.7988C454.971 65.7988 455.719 65.5863 456.397 65.1716C457.085 64.7467 457.56 64.17 457.824 63.4417L456.316 62.7436C455.962 63.6237 455.163 64.2105 454.192 64.2105C453.494 64.2105 452.927 63.9677 452.472 63.4922C452.017 63.0066 451.794 62.4098 451.794 61.7117C451.794 61.0238 452.027 60.4371 452.482 59.9616C452.937 59.4861 453.514 59.2433 454.192 59.2433C455.173 59.2433 455.962 59.7896 456.296 60.6698L457.793 59.9818C457.53 59.2636 457.065 58.6869 456.397 58.2722C455.74 57.8574 455.001 57.6449 454.202 57.6449C453.059 57.6449 452.087 58.0395 451.288 58.8387C450.489 59.6278 450.095 60.5888 450.095 61.732ZM460.578 65.6875H462.206V59.3546H464.584V57.7663H458.2V59.3546H460.578V65.6875Z" fill="white"/>
<path d="M635.664 38.7805C635.664 38.0622 635.896 37.4653 636.372 36.9797C636.847 36.4941 637.424 36.2513 638.102 36.2513C638.678 36.2513 639.134 36.393 639.478 36.6762C639.832 36.9494 640.074 37.2731 640.226 37.6474L641.673 36.9393C641.46 36.3626 641.046 35.8467 640.429 35.3914C639.811 34.9362 639.043 34.7035 638.122 34.7035C636.979 34.7035 636.008 35.0981 635.198 35.8872C634.399 36.6762 633.995 37.6474 633.995 38.7906C633.995 39.9337 634.379 40.9049 635.138 41.694C635.907 42.473 636.898 42.8675 638.102 42.8675C639.427 42.8675 640.59 42.3313 641.309 41.1679C641.673 40.5812 641.855 39.8933 641.855 39.1042V38.4871H637.738V39.9742H640.145C639.943 40.7734 639.154 41.3096 638.102 41.3096C637.394 41.3096 636.807 41.0668 636.352 40.5711C635.896 40.0754 635.664 39.4785 635.664 38.7805ZM644.793 34.8249H643.154V42.7461H644.793V34.8249ZM648.28 38.0622V36.3829H651.862V34.8249H646.642V42.7461H648.28V39.6201H651.487V38.0622H648.28ZM654.881 42.7461H656.509V36.4132H658.887V34.8249H652.503V36.4132H654.881V42.7461ZM662.359 37.961C661.458 37.7081 661.084 37.4653 661.084 36.9898C661.084 36.5144 661.489 36.1805 662.136 36.1805C662.865 36.1805 663.36 36.5043 663.634 37.1517L664.989 36.4132C664.534 35.3206 663.532 34.7035 662.207 34.7035C661.448 34.7035 660.791 34.9261 660.255 35.3813C659.718 35.8265 659.445 36.393 659.445 37.091C659.445 37.6778 659.648 38.1634 660.052 38.5579C660.416 38.9221 661.064 39.2458 661.985 39.519C662.571 39.6909 662.966 39.8528 663.168 39.9944C663.381 40.1259 663.482 40.308 663.482 40.5407C663.482 41.0263 662.976 41.3804 662.278 41.3804C661.479 41.3804 660.862 40.9656 660.548 40.2777L659.132 41.0061C659.607 42.1492 660.74 42.8675 662.227 42.8675C663.138 42.8675 663.846 42.6449 664.362 42.1897C664.878 41.7345 665.131 41.1376 665.131 40.4193C665.131 39.1548 664.251 38.4972 662.359 37.961ZM670.637 38.0622V36.3829H674.219V34.8249H668.998V42.7461H670.637V39.6201H673.844V38.0622H670.637ZM674.954 38.7906C674.954 39.9337 675.349 40.8948 676.148 41.6839C676.947 42.473 677.908 42.8675 679.051 42.8675C680.194 42.8675 681.166 42.473 681.965 41.6738C682.774 40.8746 683.179 39.8933 683.179 38.7501C683.179 37.6171 682.784 36.656 681.985 35.877C681.196 35.0981 680.235 34.7035 679.092 34.7035C677.949 34.7035 676.977 35.0981 676.168 35.8973C675.359 36.6965 674.954 37.6575 674.954 38.7906ZM677.342 37.0202C677.817 36.5346 678.394 36.2918 679.072 36.2918C679.749 36.2918 680.326 36.5346 680.801 37.0202C681.277 37.5058 681.51 38.0925 681.51 38.7805C681.51 39.4684 681.277 40.0551 680.801 40.5508C680.326 41.0364 679.749 41.2792 679.072 41.2792C678.394 41.2792 677.817 41.0364 677.342 40.5508C676.866 40.0551 676.634 39.4684 676.634 38.7805C676.634 38.0925 676.866 37.5058 677.342 37.0202ZM690.629 42.7461L688.838 39.6505C689.921 39.2559 690.467 38.4871 690.467 37.3338C690.467 36.5346 690.204 35.9175 689.668 35.4825C689.142 35.0475 688.474 34.8249 687.665 34.8249H684.539V42.7461H686.177V39.9034H687.169L688.808 42.7461H690.629ZM686.177 36.3727H687.533C688.251 36.3727 688.808 36.6661 688.808 37.3642C688.808 38.0521 688.231 38.3859 687.543 38.3859H686.177V36.3727ZM642.269 51.5159H642.279V56.7461H643.897V48.8249H641.722L639.517 54.1361L637.271 48.8249H635.157V56.7461H636.765V51.5564H636.775L638.971 56.7461H640.063L642.269 51.5159ZM645.738 48.8249V56.7461H650.948V55.2185H647.356V53.5088H650.553V51.9711H647.356V50.3626H650.927V48.8249H645.738ZM659.557 51.5159H659.568V56.7461H661.186V48.8249H659.011L656.806 54.1361L654.56 48.8249H652.446V56.7461H654.054V51.5564H654.064L656.26 56.7461H657.352L659.557 51.5159ZM669.187 54.5609C669.187 53.5493 668.712 52.9929 667.731 52.6287V52.6085C668.469 52.224 668.843 51.6575 668.843 50.919C668.843 50.2513 668.59 49.7354 668.095 49.3712C667.599 49.007 667.012 48.8249 666.314 48.8249H663.026V56.7461H666.365C667.751 56.7461 669.187 56.1695 669.187 54.5609ZM667.235 51.1719C667.235 51.7486 666.82 52.042 665.98 52.042H664.625V50.3323H666.092C666.739 50.3323 667.235 50.565 667.235 51.1719ZM667.589 54.3485C667.589 54.9353 667.174 55.2286 666.345 55.2286H664.625V53.4583H666.294C667.154 53.4583 667.589 53.7516 667.589 54.3485ZM670.554 48.8249V56.7461H675.764V55.2185H672.173V53.5088H675.37V51.9711H672.173V50.3626H675.744V48.8249H670.554ZM683.353 56.7461L681.562 53.6505C682.644 53.2559 683.191 52.4871 683.191 51.3338C683.191 50.5346 682.928 49.9175 682.392 49.4825C681.865 49.0475 681.198 48.8249 680.388 48.8249H677.263V56.7461H678.901V53.9034H679.893L681.532 56.7461H683.353ZM678.901 50.3727H680.257C680.975 50.3727 681.532 50.6661 681.532 51.3642C681.532 52.0521 680.955 52.3859 680.267 52.3859H678.901V50.3727ZM687.161 51.961C686.261 51.7081 685.886 51.4653 685.886 50.9898C685.886 50.5144 686.291 50.1805 686.938 50.1805C687.667 50.1805 688.162 50.5043 688.436 51.1517L689.791 50.4132C689.336 49.3206 688.334 48.7035 687.009 48.7035C686.25 48.7035 685.593 48.9261 685.057 49.3813C684.52 49.8265 684.247 50.393 684.247 51.091C684.247 51.6778 684.45 52.1634 684.854 52.5579C685.219 52.9221 685.866 53.2458 686.787 53.519C687.373 53.6909 687.768 53.8528 687.97 53.9944C688.183 54.1259 688.284 54.308 688.284 54.5407C688.284 55.0263 687.778 55.3804 687.08 55.3804C686.281 55.3804 685.664 54.9656 685.35 54.2777L683.934 55.0061C684.409 56.1492 685.542 56.8675 687.029 56.8675C687.94 56.8675 688.648 56.6449 689.164 56.1897C689.68 55.7345 689.933 55.1376 689.933 54.4193C689.933 53.1548 689.053 52.4972 687.161 51.961Z" fill="white"/>
<path d="M205.586 322.131V327.017C205.586 328.504 204.837 329.354 203.471 329.354C202.146 329.354 201.296 328.615 201.296 326.966V322.131H200.467V327.007C200.467 327.958 200.73 328.716 201.246 329.283C201.762 329.849 202.5 330.133 203.441 330.133C205.312 330.133 206.415 328.969 206.415 326.956V322.131H205.586ZM210.655 330.133C211.424 330.133 212.041 329.92 212.507 329.485C212.972 329.05 213.205 328.524 213.205 327.917C213.205 327.421 213.022 326.976 212.658 326.582C212.264 326.147 211.596 325.813 210.665 325.58C209.461 325.267 208.976 324.882 208.976 324.164C208.976 323.769 209.138 323.446 209.461 323.193C209.785 322.94 210.17 322.819 210.615 322.819C211.485 322.819 212.092 323.243 212.426 324.083L213.134 323.689C212.759 322.687 211.889 322.04 210.635 322.04C209.947 322.04 209.36 322.242 208.875 322.636C208.389 323.031 208.146 323.547 208.146 324.204C208.146 325.307 208.895 326.005 210.514 326.4C211.728 326.693 212.355 327.169 212.355 327.978C212.355 328.383 212.193 328.716 211.859 328.969C211.535 329.222 211.131 329.354 210.655 329.354C209.633 329.354 209.037 328.807 208.632 327.826L207.914 328.2C208.399 329.485 209.31 330.133 210.655 330.133ZM219.83 322.131H214.873V330.052H219.871V329.283H215.703V326.41H219.476V325.641H215.703V322.899H219.83V322.131ZM224.039 326.845L226.376 330.052H227.388L224.94 326.703C225.567 326.622 226.083 326.39 226.497 325.995C226.912 325.601 227.115 325.085 227.115 324.437C227.115 323.78 226.882 323.223 226.406 322.788C225.941 322.353 225.253 322.131 224.333 322.131H221.591V330.052H222.421V326.845H224.039ZM222.421 322.91H224.282C225.668 322.91 226.275 323.577 226.275 324.467C226.275 324.913 226.103 325.297 225.769 325.611C225.435 325.924 224.929 326.086 224.262 326.086H222.421V322.91ZM231.007 330.133C231.775 330.133 232.393 329.92 232.858 329.485C233.323 329.05 233.556 328.524 233.556 327.917C233.556 327.421 233.374 326.976 233.01 326.582C232.615 326.147 231.947 325.813 231.017 325.58C229.813 325.267 229.327 324.882 229.327 324.164C229.327 323.769 229.489 323.446 229.813 323.193C230.137 322.94 230.521 322.819 230.966 322.819C231.836 322.819 232.443 323.243 232.777 324.083L233.485 323.689C233.111 322.687 232.241 322.04 230.986 322.04C230.298 322.04 229.712 322.242 229.226 322.636C228.741 323.031 228.498 323.547 228.498 324.204C228.498 325.307 229.246 326.005 230.865 326.4C232.079 326.693 232.706 327.169 232.706 327.978C232.706 328.383 232.544 328.716 232.211 328.969C231.887 329.222 231.482 329.354 231.007 329.354C229.985 329.354 229.388 328.807 228.983 327.826L228.265 328.2C228.751 329.485 229.661 330.133 231.007 330.133Z" fill="white"/>
<path d="M650.709 322.131V327.017C650.709 328.504 649.96 329.354 648.594 329.354C647.269 329.354 646.419 328.615 646.419 326.966V322.131H645.59V327.007C645.59 327.958 645.853 328.716 646.369 329.283C646.885 329.849 647.623 330.133 648.564 330.133C650.435 330.133 651.538 328.969 651.538 326.956V322.131H650.709ZM655.778 330.133C656.547 330.133 657.164 329.92 657.63 329.485C658.095 329.05 658.328 328.524 658.328 327.917C658.328 327.421 658.146 326.976 657.781 326.582C657.387 326.147 656.719 325.813 655.788 325.58C654.585 325.267 654.099 324.882 654.099 324.164C654.099 323.769 654.261 323.446 654.585 323.193C654.908 322.94 655.293 322.819 655.738 322.819C656.608 322.819 657.215 323.243 657.549 324.083L658.257 323.689C657.882 322.687 657.012 322.04 655.758 322.04C655.07 322.04 654.483 322.242 653.998 322.636C653.512 323.031 653.269 323.547 653.269 324.204C653.269 325.307 654.018 326.005 655.637 326.4C656.851 326.693 657.478 327.169 657.478 327.978C657.478 328.383 657.316 328.716 656.982 328.969C656.658 329.222 656.254 329.354 655.778 329.354C654.757 329.354 654.16 328.807 653.755 327.826L653.037 328.2C653.522 329.485 654.433 330.133 655.778 330.133ZM664.953 322.131H659.996V330.052H664.994V329.283H660.826V326.41H664.599V325.641H660.826V322.899H664.953V322.131ZM669.162 326.845L671.499 330.052H672.511L670.063 326.703C670.69 326.622 671.206 326.39 671.621 325.995C672.035 325.601 672.238 325.085 672.238 324.437C672.238 323.78 672.005 323.223 671.529 322.788C671.064 322.353 670.376 322.131 669.456 322.131H666.714V330.052H667.544V326.845H669.162ZM667.544 322.91H669.405C670.791 322.91 671.398 323.577 671.398 324.467C671.398 324.913 671.226 325.297 670.892 325.611C670.558 325.924 670.052 326.086 669.385 326.086H667.544V322.91ZM676.13 330.133C676.899 330.133 677.516 329.92 677.981 329.485C678.446 329.05 678.679 328.524 678.679 327.917C678.679 327.421 678.497 326.976 678.133 326.582C677.738 326.147 677.071 325.813 676.14 325.58C674.936 325.267 674.45 324.882 674.45 324.164C674.45 323.769 674.612 323.446 674.936 323.193C675.26 322.94 675.644 322.819 676.089 322.819C676.959 322.819 677.566 323.243 677.9 324.083L678.608 323.689C678.234 322.687 677.364 322.04 676.109 322.04C675.422 322.04 674.835 322.242 674.349 322.636C673.864 323.031 673.621 323.547 673.621 324.204C673.621 325.307 674.369 326.005 675.988 326.4C677.202 326.693 677.829 327.169 677.829 327.978C677.829 328.383 677.667 328.716 677.334 328.969C677.01 329.222 676.605 329.354 676.13 329.354C675.108 329.354 674.511 328.807 674.106 327.826L673.388 328.2C673.874 329.485 674.784 330.133 676.13 330.133Z" fill="white"/>
<path d="M323.007 183.343H319.669V184.901H323.007V183.343ZM329.856 184.76C329.856 183.96 329.613 183.333 329.128 182.898C328.652 182.453 328.045 182.231 327.317 182.231C326.801 182.231 326.326 182.403 325.891 182.757L326.143 180.976H329.502V179.489H324.838L324.262 183.505L325.799 184.132C326.123 183.819 326.487 183.667 326.882 183.667C327.701 183.667 328.207 184.122 328.207 184.8C328.207 185.529 327.681 185.974 326.943 185.974C326.245 185.974 325.749 185.69 325.445 185.124L324.049 185.953C324.586 186.985 325.536 187.501 326.902 187.501C327.752 187.501 328.46 187.258 329.017 186.763C329.573 186.267 329.856 185.599 329.856 184.76ZM330.677 181.199C330.677 181.694 330.849 182.109 331.203 182.463C331.558 182.817 331.972 182.989 332.468 182.989C332.964 182.989 333.379 182.817 333.733 182.463C334.087 182.109 334.259 181.694 334.259 181.199C334.259 180.703 334.087 180.278 333.733 179.924C333.379 179.57 332.964 179.398 332.468 179.398C331.972 179.398 331.558 179.57 331.203 179.924C330.849 180.278 330.677 180.703 330.677 181.199ZM331.547 187.41H332.923L338.073 179.489H336.707L331.547 187.41ZM331.841 181.199C331.841 180.845 332.114 180.571 332.468 180.571C332.822 180.571 333.095 180.845 333.095 181.199C333.095 181.533 332.802 181.816 332.468 181.816C332.134 181.816 331.841 181.533 331.841 181.199ZM335.382 185.67C335.382 186.166 335.554 186.581 335.908 186.935C336.262 187.279 336.676 187.451 337.172 187.451C337.668 187.451 338.083 187.279 338.437 186.935C338.791 186.581 338.963 186.166 338.963 185.67C338.963 185.174 338.791 184.75 338.437 184.395C338.083 184.041 337.668 183.869 337.172 183.869C336.676 183.869 336.262 184.041 335.908 184.395C335.554 184.75 335.382 185.174 335.382 185.67ZM336.545 185.67C336.545 185.316 336.818 185.043 337.172 185.043C337.526 185.043 337.799 185.316 337.799 185.67C337.799 186.004 337.506 186.287 337.172 186.287C336.838 186.287 336.545 186.004 336.545 185.67Z" fill="#E871CAFF"/>
<path d="M458.675 270.345H455.336V271.903H458.675V270.345ZM465.504 272.136C465.504 271.256 465.149 270.689 464.269 270.325V270.315C464.988 269.931 465.352 269.374 465.352 268.646C465.352 267.968 465.099 267.412 464.593 266.997C464.087 266.582 463.43 266.37 462.62 266.37C461.295 266.37 460.243 266.987 459.798 268.079L461.265 268.777C461.538 268.191 461.963 267.897 462.56 267.897C463.278 267.897 463.703 268.261 463.703 268.757C463.703 269.283 463.288 269.647 462.59 269.647H461.841V271.165H462.681C463.409 271.165 463.844 271.499 463.844 272.095C463.844 272.652 463.379 273.016 462.681 273.016C461.963 273.016 461.386 272.682 461.113 272.106L459.676 272.844C460.152 273.947 461.255 274.534 462.641 274.534C463.46 274.534 464.138 274.311 464.684 273.856C465.23 273.4 465.504 272.824 465.504 272.136ZM466.506 270.446C466.506 271.509 466.79 272.49 467.316 273.259C467.852 274.028 468.762 274.513 469.885 274.513C472.162 274.513 473.295 272.5 473.295 270.406C473.295 268.959 472.829 267.725 471.777 266.956C471.261 266.562 470.634 266.37 469.916 266.37C469.177 266.37 468.54 266.572 468.014 266.966C467.488 267.361 467.103 267.857 466.861 268.454C466.628 269.05 466.506 269.718 466.506 270.446ZM468.317 269.313C468.429 268.959 468.621 268.636 468.894 268.362C469.167 268.079 469.501 267.938 469.895 267.938C470.29 267.938 470.624 268.079 470.897 268.362C471.696 269.162 471.787 270.487 471.474 271.549C471.362 271.913 471.17 272.237 470.897 272.52C470.624 272.793 470.29 272.935 469.895 272.935C469.501 272.935 469.167 272.793 468.894 272.52C468.095 271.701 468.004 270.345 468.317 269.313ZM474.13 268.201C474.13 268.696 474.302 269.111 474.656 269.465C475.01 269.819 475.425 269.991 475.921 269.991C476.416 269.991 476.831 269.819 477.185 269.465C477.539 269.111 477.711 268.696 477.711 268.201C477.711 267.705 477.539 267.28 477.185 266.926C476.831 266.572 476.416 266.4 475.921 266.4C475.425 266.4 475.01 266.572 474.656 266.926C474.302 267.28 474.13 267.705 474.13 268.201ZM475 274.412H476.376L481.525 266.491H480.159L475 274.412ZM475.293 268.201C475.293 267.847 475.566 267.573 475.921 267.573C476.275 267.573 476.548 267.847 476.548 268.201C476.548 268.534 476.254 268.818 475.921 268.818C475.587 268.818 475.293 268.534 475.293 268.201ZM478.834 272.672C478.834 273.168 479.006 273.583 479.36 273.937C479.714 274.281 480.129 274.453 480.625 274.453C481.12 274.453 481.535 274.281 481.889 273.937C482.243 273.583 482.415 273.168 482.415 272.672C482.415 272.176 482.243 271.751 481.889 271.397C481.535 271.043 481.12 270.871 480.625 270.871C480.129 270.871 479.714 271.043 479.36 271.397C479.006 271.751 478.834 272.176 478.834 272.672ZM479.997 272.672C479.997 272.318 480.271 272.045 480.625 272.045C480.979 272.045 481.252 272.318 481.252 272.672C481.252 273.006 480.959 273.289 480.625 273.289C480.291 273.289 479.997 273.006 479.997 272.672Z" fill="#E871CAFF"/>
<path d="M301.67 213.885H300.841V221.807H301.67V213.885ZM310.328 213.885H309.509V220.502L304.835 213.885H303.874V221.807H304.693V215.059L309.438 221.807H310.328V213.885ZM317.1 217.507H313.367V214.664H317.444V213.885H312.538V221.807H313.367V218.276H317.1V217.507ZM319.789 213.885H318.959V221.807H323.542V221.028H319.789V213.885ZM325.505 219.783H329.825L330.684 221.807H331.565L328.145 213.885H327.204L323.785 221.807H324.635L325.505 219.783ZM325.818 219.025L327.66 214.745L329.501 219.025H325.818ZM333.711 221.807H334.551V214.664H337.191V213.885H331.061V214.664H333.711V221.807ZM339.34 213.885H338.511V221.807H339.34V213.885ZM348.949 217.821C348.949 216.688 348.564 215.737 347.806 214.968C347.047 214.189 346.106 213.805 344.983 213.805C343.84 213.805 342.889 214.199 342.13 214.978C341.372 215.757 340.987 216.728 340.987 217.871C340.987 219.004 341.361 219.955 342.12 220.734C342.879 221.503 343.83 221.888 344.953 221.888C346.096 221.888 347.047 221.493 347.806 220.714C348.564 219.935 348.949 218.964 348.949 217.821ZM348.089 217.871C348.089 218.772 347.796 219.53 347.209 220.168C346.622 220.795 345.884 221.109 344.983 221.109C344.083 221.109 343.334 220.785 342.737 220.148C342.14 219.51 341.847 218.731 341.847 217.821C341.847 216.92 342.14 216.162 342.727 215.534C343.314 214.897 344.052 214.584 344.953 214.584C345.853 214.584 346.602 214.907 347.199 215.545C347.796 216.182 348.089 216.961 348.089 217.871ZM357.047 213.885H356.228V220.502L351.554 213.885H350.593V221.807H351.412V215.059L356.157 221.807H357.047V213.885Z" fill="white"/>
<path d="M490.532 274.412H491.372V267.27H494.012V266.491H487.882V267.27H490.532V274.412ZM495.229 272.389H499.548L500.408 274.412H501.288L497.869 266.491H496.928L493.509 274.412H494.359L495.229 272.389ZM495.542 271.63L497.383 267.351L499.225 271.63H495.542ZM502.375 274.412L504.934 270.952L507.504 274.412H508.475L505.44 270.345L508.343 266.491H507.372L504.954 269.759L502.506 266.491H501.535L504.438 270.355L501.404 274.412H502.375Z" fill="white"/>
<path d="M30.2294 221.401L33.8713 226.864H35.5405V218.943H33.9219V224.113L30.4823 218.943H28.6108V226.864H30.2294V221.401ZM39.0324 222.18V220.501H42.6136V218.943H37.3935V226.864H39.0324V223.738H42.2393V222.18H39.0324ZM45.6325 226.864H47.2612V220.531H49.6386V218.943H43.2551V220.531H45.6325V226.864ZM55.4621 222.079C54.5617 221.826 54.1874 221.583 54.1874 221.108C54.1874 220.633 54.5921 220.299 55.2395 220.299C55.9679 220.299 56.4636 220.622 56.7368 221.27L58.0924 220.531C57.6371 219.439 56.6356 218.822 55.3103 218.822C54.5516 218.822 53.894 219.044 53.3579 219.499C52.8217 219.945 52.5486 220.511 52.5486 221.209C52.5486 221.796 52.7509 222.282 53.1555 222.676C53.5197 223.04 54.1672 223.364 55.0878 223.637C55.6745 223.809 56.0691 223.971 56.2714 224.113C56.4839 224.244 56.585 224.426 56.585 224.659C56.585 225.144 56.0792 225.499 55.3812 225.499C54.582 225.499 53.9649 225.084 53.6513 224.396L52.235 225.124C52.7104 226.267 53.8435 226.986 55.3306 226.986C56.2411 226.986 56.9492 226.763 57.4651 226.308C57.9811 225.853 58.234 225.256 58.234 224.537C58.234 223.273 57.3539 222.615 55.4621 222.079ZM60.1526 226.864L60.7393 225.266H64.2497L64.8466 226.864H66.536L63.5011 218.943H61.5284L58.5036 226.864H60.1526ZM62.4996 220.531L63.6933 223.748H61.3058L62.4996 220.531ZM67.4464 218.943V226.864H72.4642V225.306H69.0752V218.943H67.4464ZM73.5519 218.943V226.864H78.7618V225.337H75.1705V223.627H78.3673V222.089H75.1705V220.481H78.7416V218.943H73.5519ZM82.7587 222.079C81.8583 221.826 81.484 221.583 81.484 221.108C81.484 220.633 81.8887 220.299 82.5361 220.299C83.2645 220.299 83.7602 220.622 84.0333 221.27L85.3889 220.531C84.9337 219.439 83.9322 218.822 82.6069 218.822C81.8482 218.822 81.1906 219.044 80.6545 219.499C80.1183 219.945 79.8451 220.511 79.8451 221.209C79.8451 221.796 80.0475 222.282 80.4521 222.676C80.8163 223.04 81.4638 223.364 82.3844 223.637C82.9711 223.809 83.3657 223.971 83.568 224.113C83.7804 224.244 83.8816 224.426 83.8816 224.659C83.8816 225.144 83.3758 225.499 82.6777 225.499C81.8785 225.499 81.2614 225.084 80.9478 224.396L79.5315 225.124C80.007 226.267 81.14 226.986 82.6272 226.986C83.5376 226.986 84.2458 226.763 84.7617 226.308C85.2777 225.853 85.5306 225.256 85.5306 224.537C85.5306 223.273 84.6504 222.615 82.7587 222.079Z" fill="white"/>
<path d="M179.805 66.7011C179.805 65.8918 179.542 65.2645 179.006 64.8295C178.48 64.3844 177.802 64.1618 176.972 64.1618H174.028V72.083H175.667V69.2909H176.912C177.782 69.2909 178.48 69.0683 179.006 68.6333C179.542 68.1882 179.805 67.5407 179.805 66.7011ZM178.156 66.7415C178.156 67.4294 177.569 67.7633 176.841 67.7633H175.667V65.7097H176.831C177.589 65.7097 178.156 66.0233 178.156 66.7415ZM187.123 72.083L185.332 68.9874C186.415 68.5928 186.961 67.824 186.961 66.6707C186.961 65.8715 186.698 65.2544 186.162 64.8194C185.636 64.3844 184.968 64.1618 184.159 64.1618H181.033V72.083H182.672V69.2403H183.663L185.302 72.083H187.123ZM182.672 65.7097H184.027C184.746 65.7097 185.302 66.003 185.302 66.7011C185.302 67.389 184.725 67.7228 184.037 67.7228H182.672V65.7097ZM190.071 64.1618H188.433V72.083H190.071V64.1618ZM191.151 64.1618L194.014 72.083H195.906L198.779 64.1618H197.039L194.975 70.1811L192.921 64.1618H191.151ZM200.038 72.083L200.625 70.4846H204.135L204.732 72.083H206.421L203.386 64.1618H201.414L198.389 72.083H200.038ZM202.385 65.7501L203.579 68.9671H201.191L202.385 65.7501ZM208.27 72.083H209.899V65.7501H212.276V64.1618H205.892V65.7501H208.27V72.083ZM213.407 64.1618V72.083H218.617V70.5554H215.026V68.8457H218.223V67.3081H215.026V65.6995H218.597V64.1618H213.407ZM224.293 64.1618H222.654V72.083H224.293V64.1618ZM227.761 66.6201L231.402 72.083H233.072V64.1618H231.453V69.3313L228.013 64.1618H226.142V72.083H227.761V66.6201ZM234.156 64.1618L237.019 72.083H238.91L241.784 64.1618H240.044L237.98 70.1811L235.926 64.1618H234.156ZM242.858 64.1618V72.083H248.068V70.5554H244.476V68.8457H247.673V67.3081H244.476V65.6995H248.047V64.1618H242.858ZM252.065 67.2979C251.164 67.045 250.79 66.8022 250.79 66.3268C250.79 65.8513 251.195 65.5174 251.842 65.5174C252.57 65.5174 253.066 65.8412 253.339 66.4886L254.695 65.7501C254.24 64.6575 253.238 64.0404 251.913 64.0404C251.154 64.0404 250.496 64.263 249.96 64.7182C249.424 65.1634 249.151 65.7299 249.151 66.4279C249.151 67.0147 249.353 67.5003 249.758 67.8948C250.122 68.259 250.77 68.5827 251.69 68.8559C252.277 69.0278 252.672 69.1897 252.874 69.3313C253.086 69.4629 253.187 69.6449 253.187 69.8776C253.187 70.3632 252.682 70.7173 251.984 70.7173C251.184 70.7173 250.567 70.3025 250.254 69.6146L248.837 70.343C249.313 71.4861 250.446 72.2044 251.933 72.2044C252.843 72.2044 253.552 71.9818 254.068 71.5266C254.584 71.0714 254.836 70.4745 254.836 69.7562C254.836 68.4917 253.956 67.8341 252.065 67.2979ZM257.657 72.083H259.285V65.7501H261.663V64.1618H255.279V65.7501H257.657V72.083Z" fill="white"/>
<path d="M191.887 370.609C191.887 371.762 192.282 372.733 193.061 373.512C193.84 374.291 194.811 374.676 195.964 374.676C196.764 374.676 197.512 374.463 198.19 374.049C198.878 373.624 199.353 373.047 199.616 372.319L198.109 371.621C197.755 372.501 196.956 373.087 195.985 373.087C195.287 373.087 194.72 372.845 194.265 372.369C193.81 371.884 193.587 371.287 193.587 370.589C193.587 369.901 193.82 369.314 194.275 368.839C194.73 368.363 195.307 368.12 195.985 368.12C196.966 368.12 197.755 368.667 198.089 369.547L199.586 368.859C199.323 368.141 198.858 367.564 198.19 367.149C197.532 366.734 196.794 366.522 195.995 366.522C194.852 366.522 193.88 366.916 193.081 367.716C192.282 368.505 191.887 369.466 191.887 370.609ZM202.429 371.358H205.747V374.564H207.386V366.643H205.747V369.769H202.429V366.643H200.79V374.564H202.429V371.358ZM209.945 374.564L210.532 372.966H214.043L214.639 374.564H216.329L213.294 366.643H211.321L208.296 374.564H209.945ZM212.292 368.232L213.486 371.449H211.099L212.292 368.232ZM223.329 374.564L221.539 371.469C222.621 371.074 223.167 370.305 223.167 369.152C223.167 368.353 222.904 367.736 222.368 367.301C221.842 366.866 221.175 366.643 220.365 366.643H217.239V374.564H218.878V371.722H219.87L221.508 374.564H223.329ZM218.878 368.191H220.234C220.952 368.191 221.508 368.484 221.508 369.183C221.508 369.87 220.932 370.204 220.244 370.204H218.878V368.191ZM224.639 366.643V374.564H229.849V373.037H226.258V371.327H229.454V369.789H226.258V368.181H229.829V366.643H224.639ZM233.016 374.564H234.645V368.232H237.022V366.643H230.639V368.232H233.016V374.564ZM240.278 374.564H241.917V371.358L244.821 366.643H242.949L241.098 369.81L239.267 366.643H237.375L240.278 371.428V374.564Z" fill="white"/>
<path d="M622.788 369.779C621.888 369.526 621.514 369.284 621.514 368.808C621.514 368.333 621.918 367.999 622.566 367.999C623.294 367.999 623.79 368.323 624.063 368.97L625.418 368.232C624.963 367.139 623.962 366.522 622.636 366.522C621.878 366.522 621.22 366.744 620.684 367.2C620.148 367.645 619.875 368.211 619.875 368.909C619.875 369.496 620.077 369.982 620.482 370.376C620.846 370.74 621.493 371.064 622.414 371.337C623.001 371.509 623.395 371.671 623.598 371.813C623.81 371.944 623.911 372.126 623.911 372.359C623.911 372.845 623.405 373.199 622.707 373.199C621.908 373.199 621.291 372.784 620.977 372.096L619.561 372.824C620.037 373.968 621.17 374.686 622.657 374.686C623.567 374.686 624.275 374.463 624.791 374.008C625.307 373.553 625.56 372.956 625.56 372.238C625.56 370.973 624.68 370.316 622.788 369.779ZM628.38 374.564H630.009V368.232H632.386V366.643H626.003V368.232H628.38V374.564ZM632.756 370.609C632.756 371.752 633.15 372.713 633.949 373.502C634.749 374.291 635.71 374.686 636.853 374.686C637.996 374.686 638.967 374.291 639.766 373.492C640.576 372.693 640.98 371.712 640.98 370.568C640.98 369.435 640.586 368.474 639.787 367.695C638.998 366.916 638.036 366.522 636.893 366.522C635.75 366.522 634.779 366.916 633.97 367.716C633.16 368.515 632.756 369.476 632.756 370.609ZM635.143 368.839C635.619 368.353 636.195 368.11 636.873 368.11C637.551 368.11 638.127 368.353 638.603 368.839C639.078 369.324 639.311 369.911 639.311 370.599C639.311 371.287 639.078 371.873 638.603 372.369C638.127 372.855 637.551 373.098 636.873 373.098C636.195 373.098 635.619 372.855 635.143 372.369C634.668 371.873 634.435 371.287 634.435 370.599C634.435 369.911 634.668 369.324 635.143 368.839ZM648.43 374.564L646.64 371.469C647.722 371.074 648.268 370.305 648.268 369.152C648.268 368.353 648.005 367.736 647.469 367.301C646.943 366.866 646.275 366.643 645.466 366.643H642.34V374.564H643.979V371.722H644.97L646.609 374.564H648.43ZM643.979 368.191H645.335C646.053 368.191 646.609 368.484 646.609 369.183C646.609 369.87 646.033 370.204 645.345 370.204H643.979V368.191ZM649.74 366.643V374.564H654.95V373.037H651.358V371.327H654.555V369.789H651.358V368.181H654.929V366.643H649.74ZM660.31 374.564H661.939V368.232H664.316V366.643H657.933V368.232H660.31V374.564ZM664.686 370.609C664.686 371.752 665.08 372.713 665.879 373.502C666.679 374.291 667.64 374.686 668.783 374.686C669.926 374.686 670.897 374.291 671.696 373.492C672.506 372.693 672.91 371.712 672.91 370.568C672.91 369.435 672.516 368.474 671.717 367.695C670.927 366.916 669.966 366.522 668.823 366.522C667.68 366.522 666.709 366.916 665.9 367.716C665.09 368.515 664.686 369.476 664.686 370.609ZM667.073 368.839C667.549 368.353 668.125 368.11 668.803 368.11C669.481 368.11 670.057 368.353 670.533 368.839C671.008 369.324 671.241 369.911 671.241 370.599C671.241 371.287 671.008 371.873 670.533 372.369C670.057 372.855 669.481 373.098 668.803 373.098C668.125 373.098 667.549 372.855 667.073 372.369C666.598 371.873 666.365 371.287 666.365 370.599C666.365 369.911 666.598 369.324 667.073 368.839ZM675.754 366.643L678.617 374.564H680.508L683.382 366.643H681.641L679.578 372.663L677.524 366.643H675.754ZM683.703 370.609C683.703 371.752 684.098 372.713 684.897 373.502C685.696 374.291 686.657 374.686 687.801 374.686C688.944 374.686 689.915 374.291 690.714 373.492C691.523 372.693 691.928 371.712 691.928 370.568C691.928 369.435 691.533 368.474 690.734 367.695C689.945 366.916 688.984 366.522 687.841 366.522C686.698 366.522 685.727 366.916 684.917 367.716C684.108 368.515 683.703 369.476 683.703 370.609ZM686.091 368.839C686.566 368.353 687.143 368.11 687.821 368.11C688.499 368.11 689.075 368.353 689.551 368.839C690.026 369.324 690.259 369.911 690.259 370.599C690.259 371.287 690.026 371.873 689.551 372.369C689.075 372.855 688.499 373.098 687.821 373.098C687.143 373.098 686.566 372.855 686.091 372.369C685.615 371.873 685.383 371.287 685.383 370.599C685.383 369.911 685.615 369.324 686.091 368.839ZM694.957 374.564H696.586V368.232H698.963V366.643H692.58V368.232H694.957V374.564ZM700.095 366.643V374.564H705.305V373.037H701.713V371.327H704.91V369.789H701.713V368.181H705.284V366.643H700.095Z" fill="white"/>
<path d="M415.388 326.096C415.388 327.239 415.782 328.2 416.581 328.99C417.381 329.779 418.342 330.173 419.485 330.173C420.628 330.173 421.599 329.779 422.398 328.979C423.208 328.18 423.612 327.199 423.612 326.056C423.612 324.923 423.218 323.962 422.419 323.183C421.63 322.404 420.669 322.009 419.525 322.009C418.382 322.009 417.411 322.404 416.602 323.203C415.792 324.002 415.388 324.963 415.388 326.096ZM417.775 324.326C418.251 323.84 418.827 323.597 419.505 323.597C420.183 323.597 420.76 323.84 421.235 324.326C421.711 324.811 421.943 325.398 421.943 326.086C421.943 326.774 421.711 327.361 421.235 327.856C420.76 328.342 420.183 328.585 419.505 328.585C418.827 328.585 418.251 328.342 417.775 327.856C417.3 327.361 417.067 326.774 417.067 326.086C417.067 325.398 417.3 324.811 417.775 324.326ZM428.331 330.052L430.061 324.306H430.081L431.801 330.052H433.571L435.918 322.131H434.229L432.671 327.796L430.961 322.131H429.211L427.501 327.755L425.994 322.131H424.244L426.571 330.052H428.331ZM438.644 324.589L442.286 330.052H443.955V322.131H442.336V327.3L438.896 322.131H437.025V330.052H438.644V324.589ZM445.808 322.131V330.052H451.018V328.524H447.426V326.814H450.623V325.277H447.426V323.668H450.997V322.131H445.808ZM458.606 330.052L456.815 326.956C457.898 326.562 458.444 325.793 458.444 324.639C458.444 323.84 458.181 323.223 457.645 322.788C457.119 322.353 456.451 322.131 455.642 322.131H452.516V330.052H454.155V327.209H455.146L456.785 330.052H458.606ZM454.155 323.678H455.51C456.228 323.678 456.785 323.972 456.785 324.67C456.785 325.358 456.208 325.692 455.52 325.692H454.155V323.678ZM462.414 325.267C461.514 325.014 461.139 324.771 461.139 324.296C461.139 323.82 461.544 323.486 462.192 323.486C462.92 323.486 463.416 323.81 463.689 324.457L465.044 323.719C464.589 322.626 463.588 322.009 462.262 322.009C461.504 322.009 460.846 322.232 460.31 322.687C459.774 323.132 459.501 323.699 459.501 324.397C459.501 324.983 459.703 325.469 460.108 325.864C460.472 326.228 461.119 326.551 462.04 326.825C462.627 326.997 463.021 327.158 463.223 327.3C463.436 327.432 463.537 327.614 463.537 327.846C463.537 328.332 463.031 328.686 462.333 328.686C461.534 328.686 460.917 328.271 460.603 327.583L459.187 328.312C459.662 329.455 460.795 330.173 462.283 330.173C463.193 330.173 463.901 329.951 464.417 329.495C464.933 329.04 465.186 328.443 465.186 327.725C465.186 326.46 464.306 325.803 462.414 325.267Z" fill="white"/>
<path d="M375.255 371.904V370.225H378.836V368.667H373.616V376.588H375.255V373.462H378.462V371.904H375.255ZM379.572 372.632C379.572 373.776 379.966 374.737 380.765 375.526C381.565 376.315 382.526 376.709 383.669 376.709C384.812 376.709 385.783 376.315 386.582 375.516C387.392 374.716 387.796 373.735 387.796 372.592C387.796 371.459 387.402 370.498 386.603 369.719C385.813 368.94 384.852 368.545 383.709 368.545C382.566 368.545 381.595 368.94 380.786 369.739C379.976 370.538 379.572 371.499 379.572 372.632ZM381.959 370.862C382.435 370.376 383.011 370.134 383.689 370.134C384.367 370.134 384.943 370.376 385.419 370.862C385.894 371.348 386.127 371.934 386.127 372.622C386.127 373.31 385.894 373.897 385.419 374.393C384.943 374.878 384.367 375.121 383.689 375.121C383.011 375.121 382.435 374.878 381.959 374.393C381.484 373.897 381.251 373.31 381.251 372.622C381.251 371.934 381.484 371.348 381.959 370.862ZM389.156 368.667V376.588H394.366V375.06H390.775V373.351H393.971V371.813H390.775V370.204H394.346V368.667H389.156ZM400.042 371.904V370.225H403.623V368.667H398.403V376.588H400.042V373.462H403.249V371.904H400.042ZM404.359 372.632C404.359 373.776 404.753 374.737 405.553 375.526C406.352 376.315 407.313 376.709 408.456 376.709C409.599 376.709 410.57 376.315 411.37 375.516C412.179 374.716 412.583 373.735 412.583 372.592C412.583 371.459 412.189 370.498 411.39 369.719C410.601 368.94 409.64 368.545 408.496 368.545C407.353 368.545 406.382 368.94 405.573 369.739C404.763 370.538 404.359 371.499 404.359 372.632ZM406.746 370.862C407.222 370.376 407.798 370.134 408.476 370.134C409.154 370.134 409.731 370.376 410.206 370.862C410.682 371.348 410.914 371.934 410.914 372.622C410.914 373.31 410.682 373.897 410.206 374.393C409.731 374.878 409.154 375.121 408.476 375.121C407.798 375.121 407.222 374.878 406.746 374.393C406.271 373.897 406.038 373.31 406.038 372.622C406.038 371.934 406.271 371.348 406.746 370.862ZM420.033 376.588L418.243 373.492C419.325 373.098 419.871 372.329 419.871 371.176C419.871 370.376 419.608 369.759 419.072 369.324C418.546 368.889 417.879 368.667 417.069 368.667H413.943V376.588H415.582V373.745H416.574L418.212 376.588H420.033ZM415.582 370.215H416.938C417.656 370.215 418.212 370.508 418.212 371.206C418.212 371.894 417.636 372.228 416.948 372.228H415.582V370.215ZM426.381 371.803C425.48 371.55 425.106 371.307 425.106 370.832C425.106 370.356 425.511 370.022 426.158 370.022C426.886 370.022 427.382 370.346 427.655 370.994L429.011 370.255C428.556 369.162 427.554 368.545 426.229 368.545C425.47 368.545 424.813 368.768 424.276 369.223C423.74 369.668 423.467 370.235 423.467 370.933C423.467 371.52 423.669 372.005 424.074 372.4C424.438 372.764 425.086 373.088 426.006 373.361C426.593 373.533 426.988 373.695 427.19 373.836C427.402 373.968 427.504 374.15 427.504 374.383C427.504 374.868 426.998 375.222 426.3 375.222C425.5 375.222 424.883 374.807 424.57 374.119L423.153 374.848C423.629 375.991 424.762 376.709 426.249 376.709C427.16 376.709 427.868 376.487 428.384 376.031C428.9 375.576 429.153 374.979 429.153 374.261C429.153 372.997 428.272 372.339 426.381 371.803ZM430.481 368.667V376.588H435.691V375.06H432.1V373.351H435.297V371.813H432.1V370.204H435.671V368.667H430.481ZM443.279 376.588L441.489 373.492C442.571 373.098 443.118 372.329 443.118 371.176C443.118 370.376 442.855 369.759 442.318 369.324C441.792 368.889 441.125 368.667 440.315 368.667H437.189V376.588H438.828V373.745H439.82L441.458 376.588H443.279ZM438.828 370.215H440.184C440.902 370.215 441.458 370.508 441.458 371.206C441.458 371.894 440.882 372.228 440.194 372.228H438.828V370.215ZM443.593 368.667L446.456 376.588H448.348L451.221 368.667H449.481L447.417 374.686L445.363 368.667H443.593ZM453.934 368.667H452.295V376.588H453.934V368.667ZM455.297 372.632C455.297 373.786 455.691 374.757 456.47 375.536C457.249 376.315 458.22 376.699 459.374 376.699C460.173 376.699 460.921 376.487 461.599 376.072C462.287 375.647 462.763 375.07 463.026 374.342L461.518 373.644C461.164 374.524 460.365 375.111 459.394 375.111C458.696 375.111 458.129 374.868 457.674 374.393C457.219 373.907 456.996 373.31 456.996 372.612C456.996 371.924 457.229 371.337 457.684 370.862C458.139 370.387 458.716 370.144 459.394 370.144C460.375 370.144 461.164 370.69 461.498 371.57L462.995 370.882C462.732 370.164 462.267 369.587 461.599 369.173C460.942 368.758 460.203 368.545 459.404 368.545C458.261 368.545 457.29 368.94 456.49 369.739C455.691 370.528 455.297 371.489 455.297 372.632ZM464.199 368.667V376.588H469.409V375.06H465.818V373.351H469.015V371.813H465.818V370.204H469.389V368.667H464.199ZM478.11 368.667V373.452C478.11 374.474 477.544 375.121 476.542 375.121C475.642 375.121 475.004 374.534 475.004 373.411L475.014 368.667H473.366V373.452C473.366 375.445 474.418 376.699 476.532 376.699C478.636 376.699 479.729 375.465 479.729 373.391V368.667H478.11ZM483.987 371.803C483.087 371.55 482.712 371.307 482.712 370.832C482.712 370.356 483.117 370.022 483.764 370.022C484.493 370.022 484.989 370.346 485.262 370.994L486.617 370.255C486.162 369.162 485.16 368.545 483.835 368.545C483.077 368.545 482.419 368.768 481.883 369.223C481.347 369.668 481.073 370.235 481.073 370.933C481.073 371.52 481.276 372.005 481.68 372.4C482.045 372.764 482.692 373.088 483.613 373.361C484.199 373.533 484.594 373.695 484.796 373.836C485.009 373.968 485.11 374.15 485.11 374.383C485.11 374.868 484.604 375.222 483.906 375.222C483.107 375.222 482.49 374.807 482.176 374.119L480.76 374.848C481.235 375.991 482.368 376.709 483.855 376.709C484.766 376.709 485.474 376.487 485.99 376.031C486.506 375.576 486.759 374.979 486.759 374.261C486.759 372.997 485.879 372.339 483.987 371.803ZM488.088 368.667V376.588H493.298V375.06H489.706V373.351H492.903V371.813H489.706V370.204H493.277V368.667H488.088ZM500.886 376.588L499.095 373.492C500.178 373.098 500.724 372.329 500.724 371.176C500.724 370.376 500.461 369.759 499.925 369.324C499.399 368.889 498.731 368.667 497.922 368.667H494.796V376.588H496.435V373.745H497.426L499.065 376.588H500.886ZM496.435 370.215H497.79C498.508 370.215 499.065 370.508 499.065 371.206C499.065 371.894 498.488 372.228 497.8 372.228H496.435V370.215ZM504.694 371.803C503.794 371.55 503.419 371.307 503.419 370.832C503.419 370.356 503.824 370.022 504.471 370.022C505.2 370.022 505.696 370.346 505.969 370.994L507.324 370.255C506.869 369.162 505.868 368.545 504.542 368.545C503.784 368.545 503.126 368.768 502.59 369.223C502.054 369.668 501.781 370.235 501.781 370.933C501.781 371.52 501.983 372.005 502.387 372.4C502.752 372.764 503.399 373.088 504.32 373.361C504.906 373.533 505.301 373.695 505.503 373.836C505.716 373.968 505.817 374.15 505.817 374.383C505.817 374.868 505.311 375.222 504.613 375.222C503.814 375.222 503.197 374.807 502.883 374.119L501.467 374.848C501.942 375.991 503.075 376.709 504.563 376.709C505.473 376.709 506.181 376.487 506.697 376.031C507.213 375.576 507.466 374.979 507.466 374.261C507.466 372.997 506.586 372.339 504.694 371.803Z" fill="white"/>
<circle cx="218.009" cy="198.15" r="49.8234" fill="#C4C4C4" fill-opacity="0.1" stroke="#E871CAFF" stroke-width="0.505821"/>
<circle cx="662.12" cy="198.15" r="49.8234" fill="#C4C4C4" fill-opacity="0.1" stroke="#E871CAFF" stroke-width="0.505821"/>
<circle cx="439.559" cy="198.15" r="49.8234" fill="white" fill-opacity="0.1" stroke="#E871CAFF" stroke-width="0.505821"/>
<path d="M123.42 201.69H157.816" stroke="white" stroke-width="1.01164"/>
<path d="M278.202 201.69H379.366" stroke="white" stroke-width="1.01164"/>
<path d="M499.751 201.69H600.916" stroke="white" stroke-width="1.01164"/>
<path d="M217.503 103.561L217.503 137.956" stroke="white" stroke-width="1.01164"/>
<path d="M217.503 138.968L213.123 131.38L221.884 131.38L217.503 138.968Z" fill="#E871CAFF"/>
<path d="M439.053 137.956L439.053 103.56" stroke="white" stroke-width="1.01164"/>
<path d="M662.626 104.572L662.626 138.968" stroke="white" stroke-width="1.01164"/>
<path d="M439.053 292.738L439.053 258.342" stroke="white" stroke-width="1.01164"/>
<path d="M217.503 292.738L217.503 258.342" stroke="white" stroke-width="1.01164"/>
<path d="M662.626 292.738L662.626 258.342" stroke="white" stroke-width="1.01164"/>
<line y1="201.438" x2="113.304" y2="201.438" stroke="#E871CAFF" stroke-width="0.505821"/>
<line x1="160.851" y1="46.6553" x2="274.155" y2="46.6553" stroke="#E871CAFF" stroke-width="0.505821"/>
<line x1="160.851" y1="349.137" x2="274.155" y2="349.137" stroke="#E871CAFF" stroke-width="0.505821"/>
<line x1="605.974" y1="349.137" x2="719.278" y2="349.137" stroke="#E871CAFF" stroke-width="0.505821"/>
<path d="M158.828 201.69L151.241 206.071L151.241 197.31L158.828 201.69Z" fill="#E871CAFF"/>
<path d="M217.503 257.33L221.884 264.917H213.122L217.503 257.33Z" fill="#E871CAFF"/>
<path d="M662.626 257.33L667.007 264.917H658.246L662.626 257.33Z" fill="#E871CAFF"/>
<path d="M380.378 201.69L372.791 206.071L372.791 197.31L380.378 201.69Z" fill="#E871CAFF"/>
<path d="M601.928 201.69L594.34 206.071L594.34 197.31L601.928 201.69Z" fill="#E871CAFF"/>
<path d="M439.053 138.968L434.673 131.38L443.434 131.38L439.053 138.968Z" fill="#E871CAFF"/>
<path d="M662.626 103.561L667.007 111.148L658.246 111.148L662.626 103.561Z" fill="#E871CAFF"/>
<path d="M439.053 293.749L434.673 286.162L443.434 286.162L439.053 293.749Z" fill="#E871CAFF"/>
<path d="M439.053 344.332L443.433 351.919H434.672L439.053 344.332Z" fill="#E871CAFF"/>
<path d="M199.927 206.313H201.505C201.505 206.313 201.627 206.252 201.829 206.111L202.618 205.585C202.942 205.382 203.306 205.14 203.711 204.856C204.115 204.573 204.52 204.29 204.925 204.007C205.329 203.723 205.734 203.46 206.118 203.177C206.503 202.914 206.847 202.671 207.13 202.469L207.676 201.963H203.65V196.399H209.153V193.769H195.881V196.399H199.927V206.313ZM210.186 204.492H213.909V200.425H223.378V197.775H213.909V196.399H223.823C223.863 196.197 223.924 195.974 223.964 195.711C224.005 195.448 224.025 195.185 224.066 194.922C224.086 194.679 224.106 194.436 224.126 194.234C224.146 194.032 224.167 193.87 224.207 193.769H210.186V204.492ZM238.619 193.769V196.419H228.826V197.795H238.619V204.492H225.104V201.842H234.896V200.425H225.104V193.769H238.619Z" fill="white"/>
<path d="M641.067 204.492H651.871C652.316 204.492 652.701 204.411 653.024 204.249C653.348 204.088 653.591 203.865 653.793 203.582C653.975 203.319 654.117 203.015 654.198 202.691C654.279 202.368 654.319 202.064 654.319 201.741V196.5C654.319 196.096 654.238 195.731 654.076 195.387C653.915 195.064 653.732 194.78 653.49 194.538C653.247 194.295 652.984 194.113 652.701 193.971C652.417 193.85 652.134 193.769 651.871 193.769H641.067V204.492ZM644.79 201.842V196.399H650.414C650.475 196.52 650.515 196.581 650.536 196.622C650.556 196.662 650.576 196.703 650.596 196.783V201.437C650.556 201.66 650.475 201.801 650.394 201.842H644.79ZM655.352 193.769V204.492H659.075V200.709H664.74V204.492H668.463V193.769H655.352ZM664.74 196.399V198.058H659.075V196.399H664.74ZM669.519 204.492H682.691V193.769H669.519V204.492ZM678.988 196.399V201.842H673.242V196.399H678.988Z" fill="white"/>
<path d="M416.332 204.492H427.905C428.35 204.492 428.735 204.411 429.058 204.249C429.382 204.088 429.625 203.865 429.827 203.582C430.009 203.319 430.151 203.015 430.232 202.691C430.313 202.368 430.353 202.064 430.353 201.741V196.5C430.353 196.096 430.272 195.731 430.131 195.387C429.969 195.064 429.787 194.78 429.544 194.538C429.301 194.295 429.038 194.113 428.755 193.971C428.472 193.85 428.188 193.769 427.905 193.769H416.332V204.492ZM420.055 201.842V196.399H426.448C426.509 196.52 426.549 196.581 426.57 196.622C426.59 196.662 426.61 196.703 426.63 196.783V201.437C426.61 201.599 426.549 201.741 426.448 201.842H420.055ZM431.408 204.492H444.761V201.842H435.131V196.399H444.761V193.769H431.408V204.492ZM449.939 204.492H445.407L456.272 193.769H461.249V204.492H456.292L454.006 201.882H457.547V196.986L449.939 204.492Z" fill="white"/>
</svg>
