<svg width="28" height="22" viewBox="0 0 28 22" fill="none" xmlns="http://www.w3.org/2000/svg">
<path d="M19.7626 18.937C20.4292 18.6654 21.0776 18.3448 21.6946 17.9745L22.3323 17.5919L21.7374 17.1458C21.6445 17.0761 21.5566 17.0058 21.4619 16.9301L21.4596 16.9282C21.3672 16.8543 21.2682 16.7751 21.1617 16.6952L20.9201 16.5141L20.6473 16.6435C16.3527 18.6816 11.3541 18.6816 7.05947 16.6435L6.78667 16.5141L6.5451 16.6952C6.43868 16.7751 6.33965 16.8543 6.2473 16.9282L6.24491 16.9301C6.15022 17.0058 6.06231 17.0761 5.96942 17.1458L5.37453 17.5919L6.01217 17.9745C6.62631 18.343 7.25804 18.6637 7.91972 18.9361C7.62221 19.4795 7.29103 20.0041 6.92569 20.5175C4.65477 19.8016 2.53009 18.7109 0.590445 17.3016C0.175756 12.3363 1.13424 7.33144 4.55557 2.17067C6.17456 1.41925 7.89523 0.873653 9.66071 0.552948C9.85993 0.919456 10.0447 1.30134 10.2151 1.69874L10.3678 2.05521L10.7511 1.9959C12.8029 1.67835 14.8788 1.67835 16.9307 1.9959L17.3165 2.0556L17.4679 1.69581C17.6181 1.33925 17.812 0.924205 18.0034 0.554328C19.7623 0.874892 21.4627 1.41866 23.1052 2.14997C26.082 6.58023 27.5684 11.5636 27.0911 17.3032C25.177 18.7072 23.0328 19.7784 20.7543 20.515C20.3899 20.0027 20.0595 19.4792 19.7626 18.937ZM12.2258 11.5969L12.2259 11.5969V11.5887C12.2259 9.81773 10.9545 8.2854 9.22291 8.2854C7.51066 8.2854 6.24498 9.84926 6.24498 11.5887C6.24498 13.3343 7.51606 14.867 9.22291 14.867C10.9583 14.867 12.1974 13.3316 12.2258 11.5969ZM15.4559 11.5887C15.4559 13.3343 16.727 14.867 18.4338 14.867C20.1444 14.867 21.3833 13.3562 21.4117 11.5968C21.4404 9.81849 20.1648 8.2854 18.4338 8.2854C16.7216 8.2854 15.4559 9.84927 15.4559 11.5887Z" stroke="#E82ECA"/>
</svg>
